<mxfile host="app.diagrams.net" modified="2022-05-12T20:59:06.133Z" agent="5.0 (X11; Linux x86_64) AppleWebKit/537.36 (KHTML, like Gecko) Chrome/100.0.4896.75 Safari/537.36" etag="GRBi-_PooDohCzmZJcT7" version="18.0.3" type="github">
  <diagram id="Bum4DpV5HVBmezvVb4kc" name="Page-1">
    <mxGraphModel dx="782" dy="717" grid="1" gridSize="10" guides="1" tooltips="1" connect="1" arrows="1" fold="1" page="1" pageScale="1" pageWidth="850" pageHeight="1100" math="0" shadow="0">
      <root>
        <mxCell id="0" />
        <mxCell id="1" parent="0" />
        <mxCell id="4mZPoNzNZ6b-Sgwu4F_S-26" value="Backend Server" style="shape=module;align=left;spacingLeft=20;align=center;verticalAlign=top;" vertex="1" parent="1">
          <mxGeometry x="280" y="130" width="240" height="240" as="geometry" />
        </mxCell>
        <mxCell id="4mZPoNzNZ6b-Sgwu4F_S-1" value="MySQL Database" style="shape=module;align=left;spacingLeft=20;align=center;verticalAlign=top;" vertex="1" parent="1">
          <mxGeometry x="320" y="160" width="160" height="80" as="geometry" />
        </mxCell>
        <mxCell id="4mZPoNzNZ6b-Sgwu4F_S-21" value="" style="rounded=0;orthogonalLoop=1;jettySize=auto;html=1;endArrow=none;endFill=0;sketch=0;sourcePerimeterSpacing=0;targetPerimeterSpacing=0;exitX=0.5;exitY=1;exitDx=0;exitDy=0;" edge="1" target="4mZPoNzNZ6b-Sgwu4F_S-23" parent="1" source="4mZPoNzNZ6b-Sgwu4F_S-1">
          <mxGeometry relative="1" as="geometry">
            <mxPoint x="380" y="275" as="sourcePoint" />
          </mxGeometry>
        </mxCell>
        <mxCell id="4mZPoNzNZ6b-Sgwu4F_S-22" value="" style="rounded=0;orthogonalLoop=1;jettySize=auto;html=1;endArrow=halfCircle;endFill=0;entryX=0.5;entryY=0.5;endSize=6;strokeWidth=1;sketch=0;" edge="1" target="4mZPoNzNZ6b-Sgwu4F_S-23" parent="1">
          <mxGeometry relative="1" as="geometry">
            <mxPoint x="400" y="280" as="sourcePoint" />
          </mxGeometry>
        </mxCell>
        <mxCell id="4mZPoNzNZ6b-Sgwu4F_S-23" value="" style="ellipse;whiteSpace=wrap;html=1;align=center;aspect=fixed;resizable=0;points=[];outlineConnect=0;sketch=0;" vertex="1" parent="1">
          <mxGeometry x="395" y="250" width="10" height="10" as="geometry" />
        </mxCell>
        <mxCell id="4mZPoNzNZ6b-Sgwu4F_S-24" value="Nginx Web Server" style="shape=module;align=left;spacingLeft=20;align=center;verticalAlign=top;" vertex="1" parent="1">
          <mxGeometry x="320" y="280" width="160" height="50" as="geometry" />
        </mxCell>
        <mxCell id="4mZPoNzNZ6b-Sgwu4F_S-31" style="edgeStyle=orthogonalEdgeStyle;rounded=0;orthogonalLoop=1;jettySize=auto;html=1;entryX=0.5;entryY=1;entryDx=0;entryDy=0;endArrow=none;endFill=0;startArrow=box;startFill=0;" edge="1" parent="1" source="4mZPoNzNZ6b-Sgwu4F_S-26" target="4mZPoNzNZ6b-Sgwu4F_S-24">
          <mxGeometry relative="1" as="geometry" />
        </mxCell>
        <mxCell id="4mZPoNzNZ6b-Sgwu4F_S-33" value="" style="rounded=0;orthogonalLoop=1;jettySize=auto;html=1;endArrow=none;endFill=0;sketch=0;sourcePerimeterSpacing=0;targetPerimeterSpacing=0;" edge="1" target="4mZPoNzNZ6b-Sgwu4F_S-35" parent="1" source="4mZPoNzNZ6b-Sgwu4F_S-26">
          <mxGeometry relative="1" as="geometry">
            <mxPoint x="400" y="340" as="sourcePoint" />
            <Array as="points">
              <mxPoint x="400" y="395" />
            </Array>
          </mxGeometry>
        </mxCell>
        <mxCell id="4mZPoNzNZ6b-Sgwu4F_S-34" value="" style="rounded=0;orthogonalLoop=1;jettySize=auto;html=1;endArrow=halfCircle;endFill=0;entryX=0.5;entryY=0.5;endSize=6;strokeWidth=1;sketch=0;" edge="1" target="4mZPoNzNZ6b-Sgwu4F_S-35" parent="1" source="4mZPoNzNZ6b-Sgwu4F_S-36">
          <mxGeometry relative="1" as="geometry">
            <mxPoint x="400" y="420" as="sourcePoint" />
          </mxGeometry>
        </mxCell>
        <mxCell id="4mZPoNzNZ6b-Sgwu4F_S-35" value="" style="ellipse;whiteSpace=wrap;html=1;align=center;aspect=fixed;resizable=0;points=[];outlineConnect=0;sketch=0;" vertex="1" parent="1">
          <mxGeometry x="395" y="390" width="10" height="10" as="geometry" />
        </mxCell>
        <mxCell id="4mZPoNzNZ6b-Sgwu4F_S-36" value="Fitness App" style="shape=module;align=left;spacingLeft=20;align=center;verticalAlign=top;" vertex="1" parent="1">
          <mxGeometry x="310" y="450" width="180" height="60" as="geometry" />
        </mxCell>
        <mxCell id="4mZPoNzNZ6b-Sgwu4F_S-38" value="" style="rounded=0;orthogonalLoop=1;jettySize=auto;html=1;endArrow=none;endFill=0;sketch=0;sourcePerimeterSpacing=0;targetPerimeterSpacing=0;" edge="1" target="4mZPoNzNZ6b-Sgwu4F_S-40" parent="1" source="4mZPoNzNZ6b-Sgwu4F_S-41">
          <mxGeometry relative="1" as="geometry">
            <mxPoint x="400" y="560" as="sourcePoint" />
          </mxGeometry>
        </mxCell>
        <mxCell id="4mZPoNzNZ6b-Sgwu4F_S-39" value="" style="rounded=0;orthogonalLoop=1;jettySize=auto;html=1;endArrow=halfCircle;endFill=0;entryX=0.5;entryY=0.5;endSize=6;strokeWidth=1;sketch=0;" edge="1" target="4mZPoNzNZ6b-Sgwu4F_S-40" parent="1" source="4mZPoNzNZ6b-Sgwu4F_S-36">
          <mxGeometry relative="1" as="geometry">
            <mxPoint x="420" y="545" as="sourcePoint" />
          </mxGeometry>
        </mxCell>
        <mxCell id="4mZPoNzNZ6b-Sgwu4F_S-40" value="" style="ellipse;whiteSpace=wrap;html=1;align=center;aspect=fixed;resizable=0;points=[];outlineConnect=0;sketch=0;" vertex="1" parent="1">
          <mxGeometry x="395" y="530" width="10" height="10" as="geometry" />
        </mxCell>
        <mxCell id="4mZPoNzNZ6b-Sgwu4F_S-41" value="SQLite Database" style="shape=module;align=left;spacingLeft=20;align=center;verticalAlign=top;" vertex="1" parent="1">
          <mxGeometry x="310" y="560" width="180" height="50" as="geometry" />
        </mxCell>
      </root>
    </mxGraphModel>
  </diagram>
</mxfile>
